{
	"asset":{
		"generator":"Khronos glTF Blender I/O v5.0.21",
		"version":"2.0"
	},
	"extensionsUsed":[
		"KHR_materials_emissive_strength",
		"KHR_materials_specular",
		"KHR_materials_ior"
	],
	"scene":0,
	"scenes":[
		{
			"name":"Scene",
			"nodes":[
				16
			]
		}
	],
	"nodes":[
		{
			"mesh":0,
			"name":"Avarage Wall All Sizes",
			"scale":[
				0.0029805537778884172,
				1,
				0.20800089836120605
			],
			"translation":[
				0.0037911664694547653,
				-0.0018127132207155228,
				-0.711175262928009
			]
		},
		{
			"mesh":1,
			"name":"Carpet"
		},
		{
			"mesh":2,
			"name":"Celing"
		},
		{
			"mesh":3,
			"name":"Celing.001"
		},
		{
			"mesh":4,
			"name":"Ground Cube No Baseboard All Sizes",
			"scale":[
				0.039013661444187164,
				0.30845415592193604,
				0.039013661444187164
			],
			"translation":[
				-0.3104623556137085,
				0.30930325388908386,
				0.4383240044116974
			]
		},
		{
			"mesh":5,
			"name":"Ground Cube With Baseboard",
			"scale":[
				0.03991997614502907,
				0.30845415592193604,
				0.03991997614502907
			],
			"translation":[
				-0.3033580482006073,
				0.30930325388908386,
				0.2880855202674866
			]
		},
		{
			"mesh":6,
			"name":"Lights",
			"translation":[
				0,
				-0.004275337792932987,
				0
			]
		},
		{
			"mesh":7,
			"name":"No Baseboard Wall",
			"scale":[
				0.016643421724438667,
				1,
				0.20800089836120605
			],
			"translation":[
				0.0037911664694547653,
				-0.0018127132207155228,
				0.5445669293403625
			]
		},
		{
			"mesh":8,
			"name":"No Baseboard Wall.001",
			"scale":[
				0.0018613088177517056,
				1,
				0.20799663662910461
			],
			"translation":[
				0.0031749699264764786,
				-0.0018127132207155228,
				0.07927314937114716
			]
		},
		{
			"mesh":9,
			"name":"Original Wall.001",
			"scale":[
				0.0029805537778884172,
				0.563115656375885,
				0.16794687509536743
			],
			"translation":[
				0.009941350668668747,
				0.2655683755874634,
				-0.3121568560600281
			]
		},
		{
			"mesh":10,
			"name":"Hallway Carpet",
			"scale":[
				9.303576469421387,
				1,
				1
			],
			"translation":[
				0,
				0,
				-0.0013935565948486328
			]
		},
		{
			"mesh":11,
			"name":"Hallway Celing",
			"scale":[
				9.303576469421387,
				1,
				1
			],
			"translation":[
				0,
				0,
				-0.0022585391998291016
			]
		},
		{
			"mesh":12,
			"name":"Hallway Celing.002",
			"scale":[
				9.303576469421387,
				1,
				1
			],
			"translation":[
				0,
				0,
				-0.0022585391998291016
			]
		},
		{
			"mesh":13,
			"name":"Hallway Lights",
			"rotation":[
				0,
				-0.7071070671081543,
				0,
				0.7071065902709961
			],
			"scale":[
				1,
				1,
				9.303576469421387
			],
			"translation":[
				-1.1243042945861816,
				-0.011866617947816849,
				-0.1567291021347046
			]
		},
		{
			"children":[
				10,
				11,
				12,
				13
			],
			"mesh":14,
			"name":"Short Hallway_Wall Paper",
			"scale":[
				0.11232402920722961,
				1,
				1
			],
			"translation":[
				0.8874050974845886,
				0,
				2.001248598098755
			]
		},
		{
			"mesh":15,
			"name":"Vent All Sizes",
			"rotation":[
				0,
				0,
				-1,
				3.7223804838504293e-07
			],
			"scale":[
				-0.14665894210338593,
				-1.7230846881866455,
				-0.47392138838768005
			],
			"translation":[
				-0.8863186836242676,
				1.5366829633712769,
				1.0013493299484253
			]
		},
		{
			"children":[
				0,
				1,
				2,
				3,
				4,
				5,
				6,
				7,
				8,
				9,
				14,
				15
			],
			"mesh":16,
			"name":"Big Square_Wall Paper",
			"scale":[
				22.39059066772461,
				2.50788950920105,
				22.39059066772461
			],
			"translation":[
				0.5343102812767029,
				0,
				0
			]
		}
	],
	"animations":[
		{
			"channels":[
				{
					"sampler":0,
					"target":{
						"node":4,
						"path":"translation"
					}
				},
				{
					"sampler":1,
					"target":{
						"node":4,
						"path":"rotation"
					}
				},
				{
					"sampler":2,
					"target":{
						"node":4,
						"path":"scale"
					}
				}
			],
			"name":"Ground Cube No Baseboard All SizesAction",
			"samplers":[
				{
					"input":78,
					"interpolation":"LINEAR",
					"output":79
				},
				{
					"input":78,
					"interpolation":"LINEAR",
					"output":80
				},
				{
					"input":78,
					"interpolation":"LINEAR",
					"output":81
				}
			]
		},
		{
			"channels":[
				{
					"sampler":0,
					"target":{
						"node":5,
						"path":"translation"
					}
				},
				{
					"sampler":1,
					"target":{
						"node":5,
						"path":"rotation"
					}
				},
				{
					"sampler":2,
					"target":{
						"node":5,
						"path":"scale"
					}
				}
			],
			"name":"Ground Cube With BaseboardAction",
			"samplers":[
				{
					"input":78,
					"interpolation":"LINEAR",
					"output":82
				},
				{
					"input":78,
					"interpolation":"LINEAR",
					"output":80
				},
				{
					"input":78,
					"interpolation":"LINEAR",
					"output":83
				}
			]
		},
		{
			"channels":[
				{
					"sampler":0,
					"target":{
						"node":7,
						"path":"translation"
					}
				},
				{
					"sampler":1,
					"target":{
						"node":7,
						"path":"rotation"
					}
				},
				{
					"sampler":2,
					"target":{
						"node":7,
						"path":"scale"
					}
				}
			],
			"name":"No Baseboard WallAction.004",
			"samplers":[
				{
					"input":78,
					"interpolation":"LINEAR",
					"output":84
				},
				{
					"input":78,
					"interpolation":"LINEAR",
					"output":80
				},
				{
					"input":78,
					"interpolation":"LINEAR",
					"output":85
				}
			]
		},
		{
			"channels":[
				{
					"sampler":0,
					"target":{
						"node":8,
						"path":"translation"
					}
				},
				{
					"sampler":1,
					"target":{
						"node":8,
						"path":"rotation"
					}
				},
				{
					"sampler":2,
					"target":{
						"node":8,
						"path":"scale"
					}
				}
			],
			"name":"No Baseboard Wall.001Action",
			"samplers":[
				{
					"input":78,
					"interpolation":"LINEAR",
					"output":86
				},
				{
					"input":78,
					"interpolation":"LINEAR",
					"output":80
				},
				{
					"input":78,
					"interpolation":"LINEAR",
					"output":87
				}
			]
		}
	],
	"materials":[
		{
			"doubleSided":true,
			"name":"Wallpaper",
			"pbrMetallicRoughness":{
				"baseColorTexture":{
					"index":0
				},
				"metallicFactor":0,
				"roughnessFactor":0.5
			}
		},
		{
			"doubleSided":true,
			"name":"Baseboard Avarage",
			"pbrMetallicRoughness":{
				"baseColorFactor":[
					0.28303810954093933,
					0.23852622509002686,
					0.03998100757598877,
					1
				],
				"metallicFactor":0,
				"roughnessFactor":0.5
			}
		},
		{
			"doubleSided":true,
			"extensions":{
				"KHR_materials_specular":{
					"specularFactor":0.06363636255264282
				},
				"KHR_materials_ior":{
					"ior":1.4500000476837158
				}
			},
			"name":"Carpet",
			"pbrMetallicRoughness":{
				"baseColorTexture":{
					"index":1
				},
				"metallicFactor":0,
				"roughnessFactor":0.718181848526001
			}
		},
		{
			"doubleSided":true,
			"extensions":{
				"KHR_materials_specular":{
					"specularFactor":0.3999999761581421
				},
				"KHR_materials_ior":{
					"ior":1.4500000476837158
				}
			},
			"name":"Celing Tiles",
			"pbrMetallicRoughness":{
				"baseColorTexture":{
					"index":2
				},
				"metallicFactor":0,
				"roughnessFactor":0.5
			}
		},
		{
			"doubleSided":true,
			"name":"Celing Gaps",
			"pbrMetallicRoughness":{
				"baseColorFactor":[
					0.3031902015209198,
					0.2715159058570862,
					0.20713087916374207,
					1
				],
				"metallicFactor":0,
				"roughnessFactor":0.5
			}
		},
		{
			"doubleSided":true,
			"emissiveFactor":[
				1,
				0.9405319094657898,
				0.2817411422729492
			],
			"extensions":{
				"KHR_materials_emissive_strength":{
					"emissiveStrength":6.299999237060547
				}
			},
			"name":"Ligts",
			"pbrMetallicRoughness":{
				"baseColorFactor":[
					0.8000000715255737,
					0.6563887596130371,
					0,
					1
				],
				"metallicFactor":0,
				"roughnessFactor":0.5
			}
		},
		{
			"doubleSided":true,
			"extensions":{
				"KHR_materials_specular":{
					"specularFactor":0.5
				},
				"KHR_materials_ior":{
					"ior":1.4500000476837158
				}
			},
			"name":"Baseboard Original",
			"pbrMetallicRoughness":{
				"baseColorFactor":[
					0.19828711450099945,
					0.15394854545593262,
					0.01804707571864128,
					1
				],
				"metallicFactor":0,
				"roughnessFactor":0.5
			}
		},
		{
			"doubleSided":true,
			"extensions":{
				"KHR_materials_specular":{
					"specularFactor":0
				},
				"KHR_materials_ior":{
					"ior":1.4500000476837158
				}
			},
			"name":"Vent",
			"pbrMetallicRoughness":{
				"baseColorFactor":[
					0.2727494239807129,
					0.23899997770786285,
					0.04084847867488861,
					1
				],
				"metallicFactor":0
			}
		}
	],
	"meshes":[
		{
			"name":"Cube.016",
			"primitives":[
				{
					"attributes":{
						"POSITION":0,
						"NORMAL":1,
						"TEXCOORD_0":2
					},
					"indices":3,
					"material":0
				},
				{
					"attributes":{
						"POSITION":4,
						"NORMAL":5,
						"TEXCOORD_0":6
					},
					"indices":7,
					"material":1
				}
			]
		},
		{
			"name":"Cube.003",
			"primitives":[
				{
					"attributes":{
						"POSITION":8,
						"NORMAL":9,
						"TEXCOORD_0":10
					},
					"indices":11,
					"material":2
				}
			]
		},
		{
			"name":"Cube.002",
			"primitives":[
				{
					"attributes":{
						"POSITION":12,
						"NORMAL":13,
						"TEXCOORD_0":14
					},
					"indices":15,
					"material":3
				}
			]
		},
		{
			"name":"Cube.005",
			"primitives":[
				{
					"attributes":{
						"POSITION":16,
						"NORMAL":17,
						"TEXCOORD_0":18
					},
					"indices":19,
					"material":4
				}
			]
		},
		{
			"name":"Cube.011",
			"primitives":[
				{
					"attributes":{
						"POSITION":20,
						"NORMAL":21,
						"TEXCOORD_0":22
					},
					"indices":23,
					"material":0
				}
			]
		},
		{
			"name":"Cube.010",
			"primitives":[
				{
					"attributes":{
						"POSITION":24,
						"NORMAL":25,
						"TEXCOORD_0":26
					},
					"indices":27,
					"material":0
				},
				{
					"attributes":{
						"POSITION":28,
						"NORMAL":29,
						"TEXCOORD_0":30
					},
					"indices":31,
					"material":1
				}
			]
		},
		{
			"name":"Cube.009",
			"primitives":[
				{
					"attributes":{
						"POSITION":32,
						"NORMAL":33,
						"TEXCOORD_0":34
					},
					"indices":35,
					"material":5
				}
			]
		},
		{
			"name":"Cube.008",
			"primitives":[
				{
					"attributes":{
						"POSITION":36,
						"NORMAL":37,
						"TEXCOORD_0":38
					},
					"indices":39,
					"material":0
				}
			]
		},
		{
			"name":"Cube.006",
			"primitives":[
				{
					"attributes":{
						"POSITION":40,
						"NORMAL":41,
						"TEXCOORD_0":42
					},
					"indices":39,
					"material":0
				}
			]
		},
		{
			"name":"Cube.020",
			"primitives":[
				{
					"attributes":{
						"POSITION":43,
						"NORMAL":44,
						"TEXCOORD_0":45
					},
					"indices":39,
					"material":0
				},
				{
					"attributes":{
						"POSITION":46,
						"NORMAL":47,
						"TEXCOORD_0":48
					},
					"indices":49,
					"material":6
				}
			]
		},
		{
			"name":"Cube.013",
			"primitives":[
				{
					"attributes":{
						"POSITION":50,
						"NORMAL":51,
						"TEXCOORD_0":52
					},
					"indices":53,
					"material":2
				}
			]
		},
		{
			"name":"Cube.014",
			"primitives":[
				{
					"attributes":{
						"POSITION":54,
						"NORMAL":55,
						"TEXCOORD_0":56
					},
					"indices":57,
					"material":3
				}
			]
		},
		{
			"name":"Cube.028",
			"primitives":[
				{
					"attributes":{
						"POSITION":58,
						"NORMAL":59,
						"TEXCOORD_0":60
					},
					"indices":61,
					"material":4
				}
			]
		},
		{
			"name":"Cube.015",
			"primitives":[
				{
					"attributes":{
						"POSITION":62,
						"NORMAL":63,
						"TEXCOORD_0":64
					},
					"indices":65,
					"material":5
				}
			]
		},
		{
			"name":"Cube.012",
			"primitives":[
				{
					"attributes":{
						"POSITION":66,
						"NORMAL":67,
						"TEXCOORD_0":68
					},
					"indices":69,
					"material":0
				}
			]
		},
		{
			"name":"Cube.017",
			"primitives":[
				{
					"attributes":{
						"POSITION":70,
						"NORMAL":71,
						"TEXCOORD_0":72
					},
					"indices":73,
					"material":7
				}
			]
		},
		{
			"name":"Cube.001",
			"primitives":[
				{
					"attributes":{
						"POSITION":74,
						"NORMAL":75,
						"TEXCOORD_0":76
					},
					"indices":77,
					"material":0
				}
			]
		}
	],
	"textures":[
		{
			"sampler":0,
			"source":0
		},
		{
			"sampler":0,
			"source":1
		},
		{
			"sampler":0,
			"source":2
		}
	],
	"images":[
		{
			"mimeType":"image/png",
			"name":"BackRoomsWallpaper",
			"uri":"BackRoomsWallpaper.png"
		},
		{
			"mimeType":"image/png",
			"name":"BackRoomsCarpet",
			"uri":"BackRoomsCarpet.png"
		},
		{
			"mimeType":"image/jpeg",
			"name":"tile",
			"uri":"tile.jpg"
		}
	],
	"accessors":[
		{
			"bufferView":0,
			"componentType":5126,
			"count":86,
			"max":[
				1,
				2.0081639289855957,
				1
			],
			"min":[
				-1,
				0.05465167760848999,
				-1
			],
			"type":"VEC3"
		},
		{
			"bufferView":1,
			"componentType":5126,
			"count":86,
			"type":"VEC3"
		},
		{
			"bufferView":2,
			"componentType":5126,
			"count":86,
			"type":"VEC2"
		},
		{
			"bufferView":3,
			"componentType":5123,
			"count":234,
			"type":"SCALAR"
		},
		{
			"bufferView":4,
			"componentType":5126,
			"count":258,
			"max":[
				1.6711753606796265,
				0.055062513798475266,
				1.0132496356964111
			],
			"min":[
				-1.7064999341964722,
				0.007753092795610428,
				-1.0132496356964111
			],
			"type":"VEC3"
		},
		{
			"bufferView":5,
			"componentType":5126,
			"count":258,
			"type":"VEC3"
		},
		{
			"bufferView":6,
			"componentType":5126,
			"count":258,
			"type":"VEC2"
		},
		{
			"bufferView":7,
			"componentType":5123,
			"count":702,
			"type":"SCALAR"
		},
		{
			"bufferView":8,
			"componentType":5126,
			"count":4,
			"max":[
				1,
				0.008163928985595703,
				1
			],
			"min":[
				-1,
				0.008163928985595703,
				-1
			],
			"type":"VEC3"
		},
		{
			"bufferView":9,
			"componentType":5126,
			"count":4,
			"type":"VEC3"
		},
		{
			"bufferView":10,
			"componentType":5126,
			"count":4,
			"type":"VEC2"
		},
		{
			"bufferView":11,
			"componentType":5123,
			"count":6,
			"type":"SCALAR"
		},
		{
			"bufferView":12,
			"componentType":5126,
			"count":594,
			"max":[
				1,
				2.0081639289855957,
				1
			],
			"min":[
				-1,
				2.0081639289855957,
				-1
			],
			"type":"VEC3"
		},
		{
			"bufferView":13,
			"componentType":5126,
			"count":594,
			"type":"VEC3"
		},
		{
			"bufferView":14,
			"componentType":5126,
			"count":594,
			"type":"VEC2"
		},
		{
			"bufferView":15,
			"componentType":5123,
			"count":3666,
			"type":"SCALAR"
		},
		{
			"bufferView":16,
			"componentType":5126,
			"count":13496,
			"max":[
				1,
				2.0116639137268066,
				1
			],
			"min":[
				-1,
				2.0046639442443848,
				-1
			],
			"type":"VEC3"
		},
		{
			"bufferView":17,
			"componentType":5126,
			"count":13496,
			"type":"VEC3"
		},
		{
			"bufferView":18,
			"componentType":5126,
			"count":13496,
			"type":"VEC2"
		},
		{
			"bufferView":19,
			"componentType":5123,
			"count":27768,
			"type":"SCALAR"
		},
		{
			"bufferView":20,
			"componentType":5126,
			"count":24,
			"max":[
				1,
				5.489370346069336,
				1
			],
			"min":[
				-1,
				-1,
				-1
			],
			"type":"VEC3"
		},
		{
			"bufferView":21,
			"componentType":5126,
			"count":24,
			"type":"VEC3"
		},
		{
			"bufferView":22,
			"componentType":5126,
			"count":24,
			"type":"VEC2"
		},
		{
			"bufferView":23,
			"componentType":5123,
			"count":36,
			"type":"SCALAR"
		},
		{
			"bufferView":24,
			"componentType":5126,
			"count":20,
			"max":[
				1,
				5.489370346069336,
				1
			],
			"min":[
				-1,
				-0.7714941501617432,
				-1
			],
			"type":"VEC3"
		},
		{
			"bufferView":25,
			"componentType":5126,
			"count":20,
			"type":"VEC3"
		},
		{
			"bufferView":26,
			"componentType":5126,
			"count":20,
			"type":"VEC2"
		},
		{
			"bufferView":27,
			"componentType":5123,
			"count":30,
			"type":"SCALAR"
		},
		{
			"bufferView":28,
			"componentType":5126,
			"count":36,
			"max":[
				1.0932519435882568,
				-0.7608398795127869,
				1.0932518243789673
			],
			"min":[
				-1.0932519435882568,
				-1.010654330253601,
				-1.0932520627975464
			],
			"type":"VEC3"
		},
		{
			"bufferView":29,
			"componentType":5126,
			"count":36,
			"type":"VEC3"
		},
		{
			"bufferView":30,
			"componentType":5126,
			"count":36,
			"type":"VEC2"
		},
		{
			"bufferView":31,
			"componentType":5123,
			"count":54,
			"type":"SCALAR"
		},
		{
			"bufferView":32,
			"componentType":5126,
			"count":96,
			"max":[
				0.8095238208770752,
				2.0081639289855957,
				0.8417617082595825
			],
			"min":[
				0.3333333134651184,
				2.0081639289855957,
				-0.8409786820411682
			],
			"type":"VEC3"
		},
		{
			"bufferView":33,
			"componentType":5126,
			"count":96,
			"type":"VEC3"
		},
		{
			"bufferView":34,
			"componentType":5126,
			"count":96,
			"type":"VEC2"
		},
		{
			"bufferView":35,
			"componentType":5123,
			"count":192,
			"type":"SCALAR"
		},
		{
			"bufferView":36,
			"componentType":5126,
			"count":172,
			"max":[
				1,
				2.0081639289855957,
				1
			],
			"min":[
				-1,
				0.004210580140352249,
				-1
			],
			"type":"VEC3"
		},
		{
			"bufferView":37,
			"componentType":5126,
			"count":172,
			"type":"VEC3"
		},
		{
			"bufferView":38,
			"componentType":5126,
			"count":172,
			"type":"VEC2"
		},
		{
			"bufferView":39,
			"componentType":5123,
			"count":702,
			"type":"SCALAR"
		},
		{
			"bufferView":40,
			"componentType":5126,
			"count":172,
			"max":[
				1,
				2.0081639289855957,
				1
			],
			"min":[
				-1,
				0.004210580140352249,
				-1
			],
			"type":"VEC3"
		},
		{
			"bufferView":41,
			"componentType":5126,
			"count":172,
			"type":"VEC3"
		},
		{
			"bufferView":42,
			"componentType":5126,
			"count":172,
			"type":"VEC2"
		},
		{
			"bufferView":43,
			"componentType":5126,
			"count":172,
			"max":[
				-1.3108797073364258,
				3.091341257095337,
				0.959643542766571
			],
			"min":[
				-3.310879707336426,
				-0.4673471748828888,
				-1.0403563976287842
			],
			"type":"VEC3"
		},
		{
			"bufferView":44,
			"componentType":5126,
			"count":172,
			"type":"VEC3"
		},
		{
			"bufferView":45,
			"componentType":5126,
			"count":172,
			"type":"VEC2"
		},
		{
			"bufferView":46,
			"componentType":5126,
			"count":130,
			"max":[
				-0.002423524856567383,
				0.035772502422332764,
				0.7778254151344299
			],
			"min":[
				-4.579133987426758,
				-0.03977864980697632,
				-0.8585382103919983
			],
			"type":"VEC3"
		},
		{
			"bufferView":47,
			"componentType":5126,
			"count":130,
			"type":"VEC3"
		},
		{
			"bufferView":48,
			"componentType":5126,
			"count":130,
			"type":"VEC2"
		},
		{
			"bufferView":49,
			"componentType":5123,
			"count":330,
			"type":"SCALAR"
		},
		{
			"bufferView":50,
			"componentType":5126,
			"count":26,
			"max":[
				0.10794683545827866,
				0.008163928985595703,
				1
			],
			"min":[
				-0.10831451416015625,
				-5.849197864532471,
				-1
			],
			"type":"VEC3"
		},
		{
			"bufferView":51,
			"componentType":5126,
			"count":26,
			"type":"VEC3"
		},
		{
			"bufferView":52,
			"componentType":5126,
			"count":26,
			"type":"VEC2"
		},
		{
			"bufferView":53,
			"componentType":5123,
			"count":54,
			"type":"SCALAR"
		},
		{
			"bufferView":54,
			"componentType":5126,
			"count":108,
			"max":[
				0.10666464269161224,
				2.0081639289855957,
				1
			],
			"min":[
				-0.10666464269161224,
				2.0081639289855957,
				-1
			],
			"type":"VEC3"
		},
		{
			"bufferView":55,
			"componentType":5126,
			"count":108,
			"type":"VEC3"
		},
		{
			"bufferView":56,
			"componentType":5126,
			"count":108,
			"type":"VEC2"
		},
		{
			"bufferView":57,
			"componentType":5123,
			"count":468,
			"type":"SCALAR"
		},
		{
			"bufferView":58,
			"componentType":5126,
			"count":1988,
			"max":[
				0.10666464269161224,
				2.009983777999878,
				1
			],
			"min":[
				-0.10666464269161224,
				2.00498366355896,
				-1
			],
			"type":"VEC3"
		},
		{
			"bufferView":59,
			"componentType":5126,
			"count":1988,
			"type":"VEC3"
		},
		{
			"bufferView":60,
			"componentType":5126,
			"count":1988,
			"type":"VEC2"
		},
		{
			"bufferView":61,
			"componentType":5123,
			"count":3744,
			"type":"SCALAR"
		},
		{
			"bufferView":62,
			"componentType":5126,
			"count":30,
			"max":[
				0.8153082728385925,
				2.0081639289855957,
				-0.0856613740324974
			],
			"min":[
				-0.5180246233940125,
				2.0081639289855957,
				-0.15741759538650513
			],
			"type":"VEC3"
		},
		{
			"bufferView":63,
			"componentType":5126,
			"count":30,
			"type":"VEC3"
		},
		{
			"bufferView":64,
			"componentType":5126,
			"count":30,
			"type":"VEC2"
		},
		{
			"bufferView":65,
			"componentType":5123,
			"count":60,
			"type":"SCALAR"
		},
		{
			"bufferView":66,
			"componentType":5126,
			"count":66,
			"max":[
				1,
				2.0081639289855957,
				1
			],
			"min":[
				-1,
				0.008163928985595703,
				-1
			],
			"type":"VEC3"
		},
		{
			"bufferView":67,
			"componentType":5126,
			"count":66,
			"type":"VEC3"
		},
		{
			"bufferView":68,
			"componentType":5126,
			"count":66,
			"type":"VEC2"
		},
		{
			"bufferView":69,
			"componentType":5123,
			"count":180,
			"type":"SCALAR"
		},
		{
			"bufferView":70,
			"componentType":5126,
			"count":108,
			"max":[
				0.25768131017684937,
				0.19685816764831543,
				5.02467155456543e-05
			],
			"min":[
				-0.2905240058898926,
				-0.21960687637329102,
				-1.9999489784240723
			],
			"type":"VEC3"
		},
		{
			"bufferView":71,
			"componentType":5126,
			"count":108,
			"type":"VEC3"
		},
		{
			"bufferView":72,
			"componentType":5126,
			"count":108,
			"type":"VEC2"
		},
		{
			"bufferView":73,
			"componentType":5123,
			"count":300,
			"type":"SCALAR"
		},
		{
			"bufferView":74,
			"componentType":5126,
			"count":124,
			"max":[
				1,
				2.0081639289855957,
				1
			],
			"min":[
				-1,
				0.008163928985595703,
				-1
			],
			"type":"VEC3"
		},
		{
			"bufferView":75,
			"componentType":5126,
			"count":124,
			"type":"VEC3"
		},
		{
			"bufferView":76,
			"componentType":5126,
			"count":124,
			"type":"VEC2"
		},
		{
			"bufferView":77,
			"componentType":5123,
			"count":432,
			"type":"SCALAR"
		},
		{
			"bufferView":78,
			"componentType":5126,
			"count":1,
			"max":[
				0.041666666666666664
			],
			"min":[
				0.041666666666666664
			],
			"type":"SCALAR"
		},
		{
			"bufferView":79,
			"componentType":5126,
			"count":1,
			"type":"VEC3"
		},
		{
			"bufferView":80,
			"componentType":5126,
			"count":1,
			"type":"VEC4"
		},
		{
			"bufferView":81,
			"componentType":5126,
			"count":1,
			"type":"VEC3"
		},
		{
			"bufferView":82,
			"componentType":5126,
			"count":1,
			"type":"VEC3"
		},
		{
			"bufferView":83,
			"componentType":5126,
			"count":1,
			"type":"VEC3"
		},
		{
			"bufferView":84,
			"componentType":5126,
			"count":1,
			"type":"VEC3"
		},
		{
			"bufferView":85,
			"componentType":5126,
			"count":1,
			"type":"VEC3"
		},
		{
			"bufferView":86,
			"componentType":5126,
			"count":1,
			"type":"VEC3"
		},
		{
			"bufferView":87,
			"componentType":5126,
			"count":1,
			"type":"VEC3"
		}
	],
	"bufferViews":[
		{
			"buffer":0,
			"byteLength":1032,
			"byteOffset":0,
			"target":34962
		},
		{
			"buffer":0,
			"byteLength":1032,
			"byteOffset":1032,
			"target":34962
		},
		{
			"buffer":0,
			"byteLength":688,
			"byteOffset":2064,
			"target":34962
		},
		{
			"buffer":0,
			"byteLength":468,
			"byteOffset":2752,
			"target":34963
		},
		{
			"buffer":0,
			"byteLength":3096,
			"byteOffset":3220,
			"target":34962
		},
		{
			"buffer":0,
			"byteLength":3096,
			"byteOffset":6316,
			"target":34962
		},
		{
			"buffer":0,
			"byteLength":2064,
			"byteOffset":9412,
			"target":34962
		},
		{
			"buffer":0,
			"byteLength":1404,
			"byteOffset":11476,
			"target":34963
		},
		{
			"buffer":0,
			"byteLength":48,
			"byteOffset":12880,
			"target":34962
		},
		{
			"buffer":0,
			"byteLength":48,
			"byteOffset":12928,
			"target":34962
		},
		{
			"buffer":0,
			"byteLength":32,
			"byteOffset":12976,
			"target":34962
		},
		{
			"buffer":0,
			"byteLength":12,
			"byteOffset":13008,
			"target":34963
		},
		{
			"buffer":0,
			"byteLength":7128,
			"byteOffset":13020,
			"target":34962
		},
		{
			"buffer":0,
			"byteLength":7128,
			"byteOffset":20148,
			"target":34962
		},
		{
			"buffer":0,
			"byteLength":4752,
			"byteOffset":27276,
			"target":34962
		},
		{
			"buffer":0,
			"byteLength":7332,
			"byteOffset":32028,
			"target":34963
		},
		{
			"buffer":0,
			"byteLength":161952,
			"byteOffset":39360,
			"target":34962
		},
		{
			"buffer":0,
			"byteLength":161952,
			"byteOffset":201312,
			"target":34962
		},
		{
			"buffer":0,
			"byteLength":107968,
			"byteOffset":363264,
			"target":34962
		},
		{
			"buffer":0,
			"byteLength":55536,
			"byteOffset":471232,
			"target":34963
		},
		{
			"buffer":0,
			"byteLength":288,
			"byteOffset":526768,
			"target":34962
		},
		{
			"buffer":0,
			"byteLength":288,
			"byteOffset":527056,
			"target":34962
		},
		{
			"buffer":0,
			"byteLength":192,
			"byteOffset":527344,
			"target":34962
		},
		{
			"buffer":0,
			"byteLength":72,
			"byteOffset":527536,
			"target":34963
		},
		{
			"buffer":0,
			"byteLength":240,
			"byteOffset":527608,
			"target":34962
		},
		{
			"buffer":0,
			"byteLength":240,
			"byteOffset":527848,
			"target":34962
		},
		{
			"buffer":0,
			"byteLength":160,
			"byteOffset":528088,
			"target":34962
		},
		{
			"buffer":0,
			"byteLength":60,
			"byteOffset":528248,
			"target":34963
		},
		{
			"buffer":0,
			"byteLength":432,
			"byteOffset":528308,
			"target":34962
		},
		{
			"buffer":0,
			"byteLength":432,
			"byteOffset":528740,
			"target":34962
		},
		{
			"buffer":0,
			"byteLength":288,
			"byteOffset":529172,
			"target":34962
		},
		{
			"buffer":0,
			"byteLength":108,
			"byteOffset":529460,
			"target":34963
		},
		{
			"buffer":0,
			"byteLength":1152,
			"byteOffset":529568,
			"target":34962
		},
		{
			"buffer":0,
			"byteLength":1152,
			"byteOffset":530720,
			"target":34962
		},
		{
			"buffer":0,
			"byteLength":768,
			"byteOffset":531872,
			"target":34962
		},
		{
			"buffer":0,
			"byteLength":384,
			"byteOffset":532640,
			"target":34963
		},
		{
			"buffer":0,
			"byteLength":2064,
			"byteOffset":533024,
			"target":34962
		},
		{
			"buffer":0,
			"byteLength":2064,
			"byteOffset":535088,
			"target":34962
		},
		{
			"buffer":0,
			"byteLength":1376,
			"byteOffset":537152,
			"target":34962
		},
		{
			"buffer":0,
			"byteLength":1404,
			"byteOffset":538528,
			"target":34963
		},
		{
			"buffer":0,
			"byteLength":2064,
			"byteOffset":539932,
			"target":34962
		},
		{
			"buffer":0,
			"byteLength":2064,
			"byteOffset":541996,
			"target":34962
		},
		{
			"buffer":0,
			"byteLength":1376,
			"byteOffset":544060,
			"target":34962
		},
		{
			"buffer":0,
			"byteLength":2064,
			"byteOffset":545436,
			"target":34962
		},
		{
			"buffer":0,
			"byteLength":2064,
			"byteOffset":547500,
			"target":34962
		},
		{
			"buffer":0,
			"byteLength":1376,
			"byteOffset":549564,
			"target":34962
		},
		{
			"buffer":0,
			"byteLength":1560,
			"byteOffset":550940,
			"target":34962
		},
		{
			"buffer":0,
			"byteLength":1560,
			"byteOffset":552500,
			"target":34962
		},
		{
			"buffer":0,
			"byteLength":1040,
			"byteOffset":554060,
			"target":34962
		},
		{
			"buffer":0,
			"byteLength":660,
			"byteOffset":555100,
			"target":34963
		},
		{
			"buffer":0,
			"byteLength":312,
			"byteOffset":555760,
			"target":34962
		},
		{
			"buffer":0,
			"byteLength":312,
			"byteOffset":556072,
			"target":34962
		},
		{
			"buffer":0,
			"byteLength":208,
			"byteOffset":556384,
			"target":34962
		},
		{
			"buffer":0,
			"byteLength":108,
			"byteOffset":556592,
			"target":34963
		},
		{
			"buffer":0,
			"byteLength":1296,
			"byteOffset":556700,
			"target":34962
		},
		{
			"buffer":0,
			"byteLength":1296,
			"byteOffset":557996,
			"target":34962
		},
		{
			"buffer":0,
			"byteLength":864,
			"byteOffset":559292,
			"target":34962
		},
		{
			"buffer":0,
			"byteLength":936,
			"byteOffset":560156,
			"target":34963
		},
		{
			"buffer":0,
			"byteLength":23856,
			"byteOffset":561092,
			"target":34962
		},
		{
			"buffer":0,
			"byteLength":23856,
			"byteOffset":584948,
			"target":34962
		},
		{
			"buffer":0,
			"byteLength":15904,
			"byteOffset":608804,
			"target":34962
		},
		{
			"buffer":0,
			"byteLength":7488,
			"byteOffset":624708,
			"target":34963
		},
		{
			"buffer":0,
			"byteLength":360,
			"byteOffset":632196,
			"target":34962
		},
		{
			"buffer":0,
			"byteLength":360,
			"byteOffset":632556,
			"target":34962
		},
		{
			"buffer":0,
			"byteLength":240,
			"byteOffset":632916,
			"target":34962
		},
		{
			"buffer":0,
			"byteLength":120,
			"byteOffset":633156,
			"target":34963
		},
		{
			"buffer":0,
			"byteLength":792,
			"byteOffset":633276,
			"target":34962
		},
		{
			"buffer":0,
			"byteLength":792,
			"byteOffset":634068,
			"target":34962
		},
		{
			"buffer":0,
			"byteLength":528,
			"byteOffset":634860,
			"target":34962
		},
		{
			"buffer":0,
			"byteLength":360,
			"byteOffset":635388,
			"target":34963
		},
		{
			"buffer":0,
			"byteLength":1296,
			"byteOffset":635748,
			"target":34962
		},
		{
			"buffer":0,
			"byteLength":1296,
			"byteOffset":637044,
			"target":34962
		},
		{
			"buffer":0,
			"byteLength":864,
			"byteOffset":638340,
			"target":34962
		},
		{
			"buffer":0,
			"byteLength":600,
			"byteOffset":639204,
			"target":34963
		},
		{
			"buffer":0,
			"byteLength":1488,
			"byteOffset":639804,
			"target":34962
		},
		{
			"buffer":0,
			"byteLength":1488,
			"byteOffset":641292,
			"target":34962
		},
		{
			"buffer":0,
			"byteLength":992,
			"byteOffset":642780,
			"target":34962
		},
		{
			"buffer":0,
			"byteLength":864,
			"byteOffset":643772,
			"target":34963
		},
		{
			"buffer":0,
			"byteLength":4,
			"byteOffset":644636
		},
		{
			"buffer":0,
			"byteLength":12,
			"byteOffset":644640
		},
		{
			"buffer":0,
			"byteLength":16,
			"byteOffset":644652
		},
		{
			"buffer":0,
			"byteLength":12,
			"byteOffset":644668
		},
		{
			"buffer":0,
			"byteLength":12,
			"byteOffset":644680
		},
		{
			"buffer":0,
			"byteLength":12,
			"byteOffset":644692
		},
		{
			"buffer":0,
			"byteLength":12,
			"byteOffset":644704
		},
		{
			"buffer":0,
			"byteLength":12,
			"byteOffset":644716
		},
		{
			"buffer":0,
			"byteLength":12,
			"byteOffset":644728
		},
		{
			"buffer":0,
			"byteLength":12,
			"byteOffset":644740
		}
	],
	"samplers":[
		{
			"magFilter":9729,
			"minFilter":9987
		}
	],
	"buffers":[
		{
			"byteLength":644752,
			"uri":"Backrooms%20Packed.bin"
		}
	]
}
